<svg width="25" height="25" viewBox="0 0 25 25" fill="none" xmlns="http://www.w3.org/2000/svg">
<path d="M22.6838 12.3359L13.0299 2.68907C12.9604 2.61942 12.8778 2.56417 12.7869 2.52647C12.696 2.48877 12.5986 2.46936 12.5002 2.46936C12.4018 2.46936 12.3044 2.48877 12.2135 2.52647C12.1226 2.56417 12.04 2.61942 11.9705 2.68907L2.3166 12.3359C2.03535 12.6172 1.87598 12.9992 1.87598 13.3977C1.87598 14.225 2.54863 14.8977 3.37598 14.8977H4.39316V21.7813C4.39316 22.1961 4.72832 22.5313 5.14316 22.5313H11.0002V17.2813H13.6252V22.5313H19.8572C20.2721 22.5313 20.6072 22.1961 20.6072 21.7813V14.8977H21.6244C22.0229 14.8977 22.4049 14.7406 22.6861 14.457C23.2697 13.8711 23.2697 12.9219 22.6838 12.3359Z" fill="#0C6ED3"/>
</svg>
