<svg width="33" height="32" viewBox="0 0 33 32" fill="none" xmlns="http://www.w3.org/2000/svg">
<path d="M29.5 0.750116H3.5C2.91008 0.744112 2.34187 0.972377 1.92005 1.38482C1.49823 1.79727 1.25725 2.36021 1.25 2.95012V29.0551C1.25856 29.6442 1.50012 30.2058 1.92179 30.6172C2.34347 31.0286 2.91093 31.2561 3.5 31.2501H29.5C30.09 31.2548 30.6578 31.0258 31.0794 30.6131C31.501 30.2004 31.7421 29.6375 31.75 29.0476V2.94262C31.7395 2.35444 31.4972 1.79418 31.0759 1.38363C30.6546 0.973077 30.0883 0.74541 29.5 0.750116Z" fill="#0076B2"/>
<path d="M5.76625 12.1826H10.2938V26.7501H5.76625V12.1826ZM8.03125 4.93262C8.55053 4.93262 9.05815 5.08663 9.48988 5.37518C9.92162 5.66373 10.2581 6.07385 10.4567 6.55365C10.6553 7.03345 10.7071 7.56138 10.6056 8.07065C10.5041 8.57992 10.2539 9.04764 9.88652 9.41466C9.51916 9.78167 9.05119 10.0315 8.54183 10.1325C8.03246 10.2335 7.50459 10.1811 7.02497 9.98208C6.54536 9.78302 6.13557 9.44618 5.84743 9.01417C5.55929 8.58216 5.40576 8.0744 5.40625 7.55512C5.40691 6.85936 5.68377 6.19232 6.17598 5.70058C6.66819 5.20884 7.33549 4.93262 8.03125 4.93262ZM13.1338 12.1826H17.4738V14.1826H17.5338C18.1388 13.0376 19.6138 11.8301 21.8163 11.8301C26.4013 11.8201 27.2513 14.8376 27.2513 18.7501V26.7501H22.7238V19.6626C22.7238 17.9751 22.6938 15.8026 20.3713 15.8026C18.0488 15.8026 17.6538 17.6426 17.6538 19.5526V26.7501H13.1338V12.1826Z" fill="white"/>
</svg>
