<svg width="29" height="28" viewBox="0 0 29 28" fill="none" xmlns="http://www.w3.org/2000/svg">
<circle cx="14.3" cy="13.8" r="13.8" fill="#094E96"/>
<g clip-path="url(#clip0_1103_18792)">
<path fill-rule="evenodd" clip-rule="evenodd" d="M14.5234 5.02197C9.55274 5.02197 5.52344 9.05127 5.52344 14.022C5.52344 15.723 5.99594 17.316 6.81764 18.6732L6.01484 21.402C5.96874 21.5586 5.96571 21.7248 6.00606 21.8831C6.0464 22.0413 6.12864 22.1858 6.24412 22.3013C6.3596 22.4168 6.50406 22.499 6.66231 22.5394C6.82056 22.5797 6.98676 22.5767 7.14344 22.5306L9.87224 21.7278C11.275 22.5766 12.8838 23.0242 14.5234 23.022C19.4941 23.022 23.5234 18.9927 23.5234 14.022C23.5234 9.05127 19.4941 5.02197 14.5234 5.02197ZM12.4876 16.0587C14.3083 17.8785 16.0462 18.1188 16.66 18.1413C17.5933 18.1755 18.5023 17.4627 18.856 16.6356C18.9007 16.5327 18.9169 16.4197 18.903 16.3084C18.889 16.1971 18.8455 16.0916 18.7768 16.0029C18.2836 15.3729 17.6167 14.9202 16.9651 14.4702C16.8291 14.3761 16.6619 14.3384 16.4986 14.3649C16.3354 14.3914 16.1887 14.4801 16.0894 14.6124L15.5494 15.4359C15.521 15.4801 15.4768 15.5119 15.4258 15.5246C15.3747 15.5373 15.3208 15.53 15.2749 15.5043C14.9086 15.2946 14.3749 14.9382 13.9915 14.5548C13.6081 14.1714 13.2733 13.662 13.0852 13.3191C13.0619 13.2755 13.0552 13.225 13.0663 13.1768C13.0773 13.1287 13.1055 13.0862 13.1455 13.0572L13.9771 12.4398C14.0958 12.3366 14.1724 12.1934 14.1923 12.0373C14.2122 11.8813 14.1741 11.7235 14.0851 11.5938C13.6819 11.0034 13.2121 10.2528 12.5308 9.75507C12.4429 9.69136 12.3399 9.65163 12.232 9.63979C12.124 9.62796 12.0149 9.64442 11.9152 9.68757C11.0872 10.0422 10.3708 10.9512 10.405 11.8863C10.4275 12.5001 10.6678 14.238 12.4876 16.0587Z" fill="white"/>
</g>
<defs>
<clipPath id="clip0_1103_18792">
<rect width="21.6" height="21.6" fill="white" transform="translate(3.72266 3.22217)"/>
</clipPath>
</defs>
</svg>
