<svg width="29" height="28" viewBox="0 0 29 28" fill="none" xmlns="http://www.w3.org/2000/svg">
<circle cx="14.5" cy="14" r="14" fill="#094E96"/>
<path d="M7.75581 20.3915C7.33581 20.3915 6.98521 20.2509 6.70399 19.9697C6.42216 19.6878 6.28125 19.3369 6.28125 18.9169V9.08345C6.28125 8.66345 6.42216 8.31284 6.70399 8.03163C6.98521 7.7498 7.33581 7.60889 7.75581 7.60889H21.2415C21.6615 7.60889 22.0121 7.7498 22.2933 8.03163C22.5751 8.31284 22.716 8.66345 22.716 9.08345V18.9169C22.716 19.3369 22.5754 19.6875 22.2942 19.9688C22.0124 20.2506 21.6615 20.3915 21.2415 20.3915H7.75581ZM14.4986 14.1052L21.803 9.32997L21.5218 8.52193L14.4986 13.0871L7.47551 8.52193L7.19429 9.32997L14.4986 14.1052Z" fill="white"/>
</svg>
