<svg width="29" height="28" viewBox="0 0 29 28" fill="none" xmlns="http://www.w3.org/2000/svg">
<circle cx="14.5" cy="14" r="14" fill="white"/>
<path d="M21.7573 22.2175C19.8552 22.2175 17.9758 21.8027 16.1193 20.973C14.2628 20.1434 12.5736 18.968 11.0519 17.4468C9.53016 15.9251 8.35477 14.236 7.52573 12.3795C6.69668 10.5229 6.28186 8.64358 6.28125 6.74141C6.28125 6.4675 6.37255 6.23924 6.55516 6.05663C6.73777 5.87402 6.96603 5.78271 7.23995 5.78271H10.9378C11.1508 5.78271 11.341 5.85515 11.5084 6.00002C11.6758 6.14489 11.7747 6.31593 11.8052 6.51315L12.3986 9.7088C12.4291 9.95228 12.4215 10.1577 12.3758 10.3251C12.3302 10.4925 12.2465 10.6371 12.1247 10.7588L9.9106 12.9958C10.2149 13.5588 10.5762 14.1027 10.9944 14.6274C11.4126 15.1521 11.873 15.6582 12.3758 16.1458C12.8476 16.6175 13.3421 17.0551 13.8595 17.4587C14.3769 17.8623 14.9247 18.2311 15.503 18.5653L17.6486 16.4197C17.7856 16.2827 17.9646 16.1798 18.1855 16.1111C18.4065 16.0423 18.6232 16.0234 18.8356 16.0545L21.9856 16.6936C22.1986 16.7545 22.3736 16.8649 22.5106 17.025C22.6476 17.1851 22.716 17.3638 22.716 17.561V21.2588C22.716 21.5327 22.6247 21.761 22.4421 21.9436C22.2595 22.1262 22.0313 22.2175 21.7573 22.2175Z" fill="black"/>
</svg>
