<svg width="46" height="45" viewBox="0 0 46 45" fill="none" xmlns="http://www.w3.org/2000/svg">
<path d="M44.9981 22.5C44.9981 34.4983 35.176 44.2373 23.0445 44.2373C10.9129 44.2373 1.09084 34.4983 1.09084 22.5C1.09084 10.5017 10.9129 0.762712 23.0445 0.762712C35.176 0.762712 44.9981 10.5017 44.9981 22.5Z" stroke="#FCCB06" stroke-width="1.52542"/>
<g clip-path="url(#clip0_599_11958)">
<path d="M29.9077 20.0997C30.2775 20.2945 30.5869 20.5853 30.8026 20.941C31.0184 21.2966 31.1323 21.7037 31.1323 22.1186C31.1323 22.5335 31.0184 22.9406 30.8026 23.2963C30.5869 23.6519 30.2775 23.9427 29.9077 24.1375L20.0419 29.4513C18.4532 30.3071 16.502 29.1935 16.502 27.4332V16.8048C16.502 15.0429 18.4532 13.9302 20.0419 14.7852L29.9077 20.0997Z" fill="#FCCB06"/>
</g>
<defs>
<clipPath id="clip0_599_11958">
<rect width="18.4811" height="18.3051" fill="white" transform="translate(13.4199 12.9661)"/>
</clipPath>
</defs>
</svg>
