<svg width="25" height="25" viewBox="0 0 25 25" fill="none" xmlns="http://www.w3.org/2000/svg">
<path d="M17.1465 16.5C16.5965 16.5 16.1465 16.05 16.1465 15.5H8.14648C8.14648 16.05 7.69648 16.5 7.14648 16.5C6.59648 16.5 6.14648 16.05 6.14648 15.5H2.14648V18.5C2.14648 19.6 3.04648 20.5 4.14648 20.5H20.1465C21.2465 20.5 22.1465 19.6 22.1465 18.5V15.5H18.1465C18.1465 16.05 17.6965 16.5 17.1465 16.5ZM20.1465 8.5H17.1465V6.5C17.1465 5.4 16.2465 4.5 15.1465 4.5H9.14648C8.04648 4.5 7.14648 5.4 7.14648 6.5V8.5H4.14648C3.04648 8.5 2.14648 9.4 2.14648 10.5V14.5H6.14648V13.5C6.14648 12.95 6.59648 12.5 7.14648 12.5C7.69648 12.5 8.14648 12.95 8.14648 13.5V14.5H16.1465V13.5C16.1465 12.95 16.5965 12.5 17.1465 12.5C17.6965 12.5 18.1465 12.95 18.1465 13.5V14.5H22.1465V10.5C22.1465 9.4 21.2465 8.5 20.1465 8.5ZM15.1465 8.5H9.14648V6.5H15.1465V8.5Z" fill="#444444"/>
</svg>
