<svg width="22" height="22" viewBox="0 0 22 22" fill="none" xmlns="http://www.w3.org/2000/svg">
<path d="M10.9564 1.36963C8.9594 1.37198 7.04482 2.16635 5.63269 3.57848C4.22056 4.99061 3.42619 6.90519 3.42384 8.90224C3.42144 10.5342 3.95453 12.1219 4.94131 13.4218C4.94131 13.4218 5.14675 13.6923 5.1803 13.7313L10.9564 20.5435L16.7353 13.7279C16.7655 13.6916 16.9716 13.4218 16.9716 13.4218L16.9723 13.4197C17.9586 12.1205 18.4914 10.5335 18.4891 8.90224C18.4867 6.90519 17.6923 4.99061 16.2802 3.57848C14.8681 2.16635 12.9535 1.37198 10.9564 1.36963ZM10.9564 11.6414C10.4147 11.6414 9.88511 11.4807 9.43467 11.1797C8.98422 10.8788 8.63314 10.451 8.42582 9.95046C8.2185 9.44995 8.16426 8.8992 8.26995 8.36786C8.37564 7.83652 8.63651 7.34845 9.01959 6.96538C9.40266 6.5823 9.89073 6.32143 10.4221 6.21574C10.9534 6.11005 11.5042 6.16429 12.0047 6.37161C12.5052 6.57893 12.933 6.93001 13.2339 7.38046C13.5349 7.83091 13.6956 8.36049 13.6956 8.90224C13.6947 9.62842 13.4058 10.3246 12.8923 10.8381C12.3788 11.3516 11.6826 11.6405 10.9564 11.6414Z" fill="white"/>
</svg>
