<svg width="25" height="25" viewBox="0 0 25 25" fill="none" xmlns="http://www.w3.org/2000/svg">
<path d="M13.7949 9.5H11.7949V7.5H13.7949M13.7949 17.5H11.7949V11.5H13.7949M12.7949 2.5C11.4817 2.5 10.1813 2.75866 8.96809 3.2612C7.75483 3.76375 6.65244 4.50035 5.72385 5.42893C3.84849 7.3043 2.79492 9.84784 2.79492 12.5C2.79492 15.1522 3.84849 17.6957 5.72385 19.5711C6.65244 20.4997 7.75483 21.2362 8.96809 21.7388C10.1813 22.2413 11.4817 22.5 12.7949 22.5C15.4471 22.5 17.9906 21.4464 19.866 19.5711C21.7414 17.6957 22.7949 15.1522 22.7949 12.5C22.7949 11.1868 22.5363 9.88642 22.0337 8.67317C21.5312 7.45991 20.7946 6.35752 19.866 5.42893C18.9374 4.50035 17.835 3.76375 16.6218 3.2612C15.4085 2.75866 14.1081 2.5 12.7949 2.5Z" fill="#444444"/>
</svg>
