<svg width="25" height="25" viewBox="0 0 25 25" fill="none" xmlns="http://www.w3.org/2000/svg">
<path d="M18.5 10.5H14.5V3.5C14.5 3.23478 14.3946 2.98043 14.2071 2.79289C14.0196 2.60536 13.7652 2.5 13.5 2.5H8.5C8.23478 2.5 7.98043 2.60536 7.79289 2.79289C7.60536 2.98043 7.5 3.23478 7.5 3.5V8.5H3.5C3.23478 8.5 2.98043 8.60536 2.79289 8.79289C2.60536 8.98043 2.5 9.23478 2.5 9.5V21.5C2.5 21.7652 2.60536 22.0196 2.79289 22.2071C2.98043 22.3946 3.23478 22.5 3.5 22.5H18.5C18.7652 22.5 19.0196 22.3946 19.2071 22.2071C19.3946 22.0196 19.5 21.7652 19.5 21.5V11.5C19.5 11.2348 19.3946 10.9804 19.2071 10.7929C19.0196 10.6054 18.7652 10.5 18.5 10.5ZM7.5 20.5H4.5V10.5H7.5V20.5ZM12.5 20.5H9.5V4.5H12.5V20.5ZM17.5 20.5H14.5V12.5H17.5V20.5ZM21.5 4.5H20.5V3.5C20.5 3.23478 20.3946 2.98043 20.2071 2.79289C20.0196 2.60536 19.7652 2.5 19.5 2.5C19.2348 2.5 18.9804 2.60536 18.7929 2.79289C18.6054 2.98043 18.5 3.23478 18.5 3.5V4.5H17.5C17.2348 4.5 16.9804 4.60536 16.7929 4.79289C16.6054 4.98043 16.5 5.23478 16.5 5.5C16.5 5.76522 16.6054 6.01957 16.7929 6.20711C16.9804 6.39464 17.2348 6.5 17.5 6.5H18.5V7.5C18.5 7.76522 18.6054 8.01957 18.7929 8.20711C18.9804 8.39464 19.2348 8.5 19.5 8.5C19.7652 8.5 20.0196 8.39464 20.2071 8.20711C20.3946 8.01957 20.5 7.76522 20.5 7.5V6.5H21.5C21.7652 6.5 22.0196 6.39464 22.2071 6.20711C22.3946 6.01957 22.5 5.76522 22.5 5.5C22.5 5.23478 22.3946 4.98043 22.2071 4.79289C22.0196 4.60536 21.7652 4.5 21.5 4.5Z" fill="#444444"/>
</svg>
